<?xml version="1.0" standalone="no"?>
<!DOCTYPE svg PUBLIC "-//W3C//DTD SVG 20010904//EN"
 "http://www.w3.org/TR/2001/REC-SVG-20010904/DTD/svg10.dtd">
<svg version="1.0" xmlns="http://www.w3.org/2000/svg"
 width="512.000000pt" height="512.000000pt" viewBox="0 0 512.000000 512.000000"
 preserveAspectRatio="xMidYMid meet">
<metadata>
Created by potrace 1.14, written by Peter Selinger 2001-2017
</metadata>
<g transform="translate(0.000000,512.000000) scale(0.100000,-0.100000)"
fill="#000000" stroke="none">
<path d="M2571 5108 c-127 -22 -248 -132 -297 -271 -20 -56 -20 -165 1 -252
26 -113 30 -220 11 -295 -27 -100 -27 -99 -3 -115 29 -18 67 -12 131 23 66 36
96 80 151 223 31 78 58 132 80 154 30 33 34 34 64 24 21 -7 44 -29 66 -61 36
-54 36 -55 -2 -153 -30 -77 -29 -154 0 -218 14 -28 40 -68 59 -88 18 -20 65
-71 103 -114 39 -43 90 -93 115 -112 l45 -35 -36 7 c-57 11 -204 12 -282 3
-108 -13 -344 -75 -412 -108 -83 -40 -93 -61 -125 -257 -8 -50 -20 -84 -40
-111 -21 -30 -25 -43 -18 -56 7 -13 2 -44 -21 -114 -17 -54 -34 -108 -37 -122
-18 -81 -23 -113 -28 -180 -4 -41 -9 -106 -12 -145 -4 -38 -8 -86 -9 -105 -2
-19 -6 -92 -10 -162 -8 -158 -13 -153 154 -144 64 3 190 8 281 12 116 4 171
10 185 20 54 38 95 64 101 64 13 0 -5 -125 -35 -252 -40 -169 -42 -178 -30
-200 8 -15 19 -18 52 -16 l42 3 -1 -35 c-1 -35 -7 -85 -25 -210 -16 -114 -26
-153 -54 -210 -37 -72 -81 -106 -200 -154 -138 -56 -193 -87 -240 -135 -27
-27 -54 -60 -61 -73 l-12 -23 -12 30 c-6 17 -16 55 -22 85 -6 30 -11 60 -13
65 -33 146 -56 195 -168 368 -93 145 -161 279 -196 386 -29 88 -28 92 14 87
45 -6 86 30 55 49 -5 3 -10 30 -10 59 0 29 -12 90 -26 137 -20 67 -26 104 -26
183 1 60 -5 116 -14 141 -13 39 -12 46 6 86 11 24 20 55 20 68 0 43 -23 101
-57 140 -21 26 -33 50 -33 69 0 30 -51 123 -117 214 -38 52 -48 105 -28 153
17 43 35 55 107 66 87 14 94 16 129 52 37 36 55 75 64 136 10 69 19 84 84 140
83 72 82 85 -21 200 -82 90 -113 173 -133 349 l-6 52 31 0 c34 0 49 23 33 50
-6 9 -9 27 -7 41 6 31 -46 69 -137 99 -83 28 -82 28 -59 52 23 25 12 55 -23
63 -33 9 -146 9 -198 2 -45 -7 -47 -6 -59 23 -21 52 -39 51 -238 -11 -34 -10
-64 -19 -66 -19 -1 0 -11 18 -21 39 -10 22 -24 42 -31 45 -22 8 -50 -26 -69
-85 -28 -85 -35 -88 -63 -32 -13 26 -34 58 -45 70 -19 22 -22 22 -39 6 -16
-14 -18 -30 -16 -125 l2 -108 -72 -71 c-82 -81 -123 -156 -130 -234 -5 -60 6
-70 60 -54 47 13 47 13 46 -28 -2 -64 1 -71 32 -82 21 -7 36 -22 47 -48 15
-36 39 -114 48 -159 18 -82 52 -121 147 -164 79 -35 99 -37 123 -10 28 31 37
4 13 -36 -30 -51 -43 -54 -117 -33 -114 33 -173 37 -427 27 -117 -5 -164 -25
-232 -103 -48 -55 -117 -193 -137 -275 -2 -8 -31 -121 -64 -250 -57 -222 -93
-375 -105 -447 -4 -18 -10 -43 -16 -57 -5 -15 -7 -26 -5 -26 2 0 1 -10 -4 -23
-15 -39 -23 -126 -16 -169 10 -59 74 -121 146 -142 163 -47 361 -51 576 -10
28 5 33 3 33 -13 0 -37 21 -80 43 -90 24 -11 24 -9 26 -204 1 -59 -1 -113 -4
-120 -2 -8 -6 -25 -9 -39 -18 -109 -83 -303 -138 -412 -76 -153 -186 -304
-307 -423 -95 -92 -99 -100 -70 -138 17 -24 19 -32 9 -35 -34 -12 -210 -215
-210 -243 0 -17 12 -28 160 -150 78 -64 212 -157 290 -200 115 -65 223 -88
293 -64 186 64 203 230 37 363 -30 24 -67 54 -81 66 -15 11 -29 31 -33 44 -7
20 -4 22 31 22 71 0 99 36 128 170 27 125 82 214 221 360 39 41 84 89 99 105
36 39 105 141 105 154 0 51 123 -78 217 -228 112 -179 157 -287 202 -485 27
-121 32 -130 82 -140 34 -7 49 -43 55 -134 6 -105 32 -150 104 -180 79 -32
202 -25 320 19 122 45 196 65 270 73 114 12 203 45 242 90 30 33 58 98 58 134
0 67 -50 120 -130 137 -51 11 -190 13 -225 3 -43 -12 -198 -22 -229 -14 -37 9
-32 18 22 40 26 11 53 23 60 29 17 13 15 42 -3 57 -30 25 -16 48 67 108 89 63
177 122 182 122 2 0 40 20 84 45 45 24 134 72 199 106 65 34 149 82 187 106
72 46 166 137 166 160 0 7 4 13 9 13 5 0 14 14 21 31 26 61 35 63 93 16 29
-24 93 -69 142 -101 101 -66 146 -110 180 -176 32 -63 38 -105 45 -334 3 -91
30 -207 66 -281 33 -71 165 -205 201 -205 6 0 19 7 27 16 9 8 20 13 26 9 13
-8 28 -68 36 -145 7 -80 40 -150 79 -169 57 -28 152 -9 341 67 56 23 153 58
215 80 264 91 349 142 349 212 0 35 -11 50 -56 73 -66 34 -148 37 -319 11
-122 -18 -293 -6 -288 20 1 5 32 21 69 34 67 24 137 62 148 81 13 20 -7 38
-81 76 -104 54 -170 124 -268 289 -44 73 -116 187 -160 252 -129 192 -170 279
-226 478 -40 141 -95 289 -125 338 -16 25 -20 38 -12 39 77 4 81 10 74 107 -7
99 -18 168 -40 265 -9 37 -18 82 -21 100 -12 65 -26 123 -37 150 -9 24 -7 33
19 70 34 48 87 155 102 207 22 73 39 187 37 245 -4 78 -27 124 -85 163 -51 35
-62 38 -90 20 -16 -10 -25 -6 -59 23 -23 19 -54 42 -69 50 -15 7 -31 18 -35
24 -14 19 9 129 36 170 l15 23 57 -19 c136 -45 211 -8 291 145 18 33 33 69 33
78 0 26 30 87 71 143 61 86 91 143 84 164 -3 10 -23 30 -44 44 -40 27 -73 83
-86 152 -12 61 -12 61 -20 84 -5 16 0 29 19 48 46 46 28 124 -43 185 -24 20
-44 44 -45 55 -4 25 -86 87 -172 128 -103 50 -244 71 -349 51 -111 -22 -215
-58 -318 -112 -70 -37 -72 -37 -81 16 -11 66 -63 147 -119 187 -91 65 -226 93
-346 71z"/>
</g>
</svg>
